<svg width="1700" height="1200" viewBox="0 0 1700 1200" fill="none" xmlns="http://www.w3.org/2000/svg">
<rect x="10" y="10" width="1680" height="1180" stroke="black" stroke-width="20"/>
<path d="M323.125 204.312C320.958 204.312 318.812 204.062 316.688 203.562C314.604 203.062 312.604 202.333 310.688 201.375C308.771 200.375 307.083 199.062 305.625 197.438C304.167 195.812 303.375 193.875 303.25 191.625V189V169.062C303.25 167.896 303.667 166.938 304.5 166.188C305.375 165.396 306.396 165 307.562 165C310.062 165.208 311.417 166.562 311.625 169.062V189.688C311.708 190.979 312.188 192.062 313.062 192.938C313.979 193.771 314.979 194.438 316.062 194.938C317.188 195.438 318.333 195.812 319.5 196.062C320.708 196.312 321.917 196.438 323.125 196.438C324.333 196.438 325.521 196.312 326.688 196.062C327.896 195.812 329.042 195.438 330.125 194.938C331.25 194.438 332.25 193.771 333.125 192.938C334.042 192.062 334.542 190.979 334.625 189.688V169.062C334.625 167.896 335.042 166.938 335.875 166.188C336.75 165.396 337.771 165 338.938 165C341.438 165.208 342.812 166.562 343.062 169.062V189V191.625C342.938 193.875 342.125 195.812 340.625 197.438C339.167 199.062 337.479 200.375 335.562 201.375C333.646 202.333 331.625 203.062 329.5 203.562C327.417 204.062 325.292 204.312 323.125 204.312ZM350.188 170.188C350.188 169.021 350.583 168.042 351.375 167.25C352.208 166.417 353.208 166 354.375 166H390.75C391.917 166 392.917 166.396 393.75 167.188C394.542 168.021 394.938 169.021 394.938 170.188C394.938 171.354 394.521 172.354 393.688 173.188C392.896 173.979 391.917 174.375 390.75 174.375H376.812V199.688C376.562 202.188 375.188 203.542 372.688 203.75C371.521 203.75 370.5 203.375 369.625 202.625C368.792 201.833 368.375 200.854 368.375 199.688V174.375H354.375C353.208 174.375 352.229 173.958 351.438 173.125C350.604 172.333 350.188 171.354 350.188 170.188ZM441.938 170.188C441.938 171.354 441.521 172.333 440.688 173.125C439.896 173.958 438.917 174.375 437.75 174.375H412.75C411.958 174.417 411.292 174.604 410.75 174.938C410.25 175.229 409.875 175.583 409.625 176C409.375 176.375 409.25 176.771 409.25 177.188C409.25 177.604 409.375 178.021 409.625 178.438C409.875 178.812 410.25 179.167 410.75 179.5C411.292 179.792 411.958 179.958 412.75 180H430.5C433.417 180.083 435.812 180.771 437.688 182.062C439.604 183.312 440.958 184.771 441.75 186.438C442.583 188.062 443 189.729 443 191.438C443 193.104 442.583 194.771 441.75 196.438C440.917 198.062 439.562 199.521 437.688 200.812C435.812 202.062 433.417 202.688 430.5 202.688H430.125C429.875 202.729 429.625 202.75 429.375 202.75H405.75C404.583 202.75 403.583 202.354 402.75 201.562C401.958 200.729 401.562 199.729 401.562 198.562C401.562 197.396 401.979 196.417 402.812 195.625C403.604 194.792 404.583 194.375 405.75 194.375H430.875C431.667 194.417 432.312 194.271 432.812 193.938C433.354 193.604 433.75 193.229 434 192.812C434.25 192.354 434.375 191.896 434.375 191.438C434.375 191.146 434.25 190.75 434 190.25C433.75 189.708 433.354 189.271 432.812 188.938C432.312 188.604 431.667 188.417 430.875 188.375H413.125C410.208 188.292 407.792 187.625 405.875 186.375C404 185.125 402.646 183.708 401.812 182.125C401.021 180.5 400.625 178.854 400.625 177.188C400.625 175.562 401.042 173.958 401.875 172.375C402.708 170.75 404.062 169.312 405.938 168.062C407.812 166.812 410.208 166.146 413.125 166.062H413.5C413.75 166.021 414 166 414.25 166H437.75C438.917 166 439.896 166.417 440.688 167.25C441.521 168.042 441.938 169.021 441.938 170.188ZM480.688 198.688C480.688 197.521 481.083 196.542 481.875 195.75C482.708 194.917 483.708 194.5 484.875 194.5H496.875V174.375H484.875C483.708 174.375 482.729 173.958 481.938 173.125C481.104 172.333 480.688 171.354 480.688 170.188C480.688 169.021 481.083 168.042 481.875 167.25C482.708 166.417 483.708 166 484.875 166H517.25C518.417 166 519.417 166.396 520.25 167.188C521.042 168.021 521.438 169.021 521.438 170.188C521.438 171.354 521.021 172.354 520.188 173.188C519.396 173.979 518.417 174.375 517.25 174.375H505.312V194.5H517.25C518.417 194.5 519.417 194.896 520.25 195.688C521.042 196.521 521.438 197.521 521.438 198.688C521.438 199.854 521.021 200.854 520.188 201.688C519.396 202.479 518.417 202.875 517.25 202.875H484.875C483.708 202.875 482.729 202.458 481.938 201.625C481.104 200.833 480.688 199.854 480.688 198.688ZM547.812 173.562C549.979 173.562 552.104 173.812 554.188 174.312C556.312 174.812 558.333 175.562 560.25 176.562C562.167 177.521 563.854 178.812 565.312 180.438C566.812 182.062 567.625 184 567.75 186.25V188.875V199.562C567.5 202.062 566.125 203.417 563.625 203.625C562.458 203.625 561.438 203.25 560.562 202.5C559.729 201.708 559.312 200.729 559.312 199.562V196.812V188.188C559.229 186.896 558.729 185.833 557.812 185C556.938 184.125 555.938 183.438 554.812 182.938C553.729 182.438 552.583 182.062 551.375 181.812C550.208 181.562 549.021 181.438 547.812 181.438C546.604 181.438 545.396 181.562 544.188 181.812C543.021 182.062 541.875 182.438 540.75 182.938C539.667 183.438 538.667 184.125 537.75 185C536.875 185.833 536.396 186.896 536.312 188.188V196.812V199.562C536.104 202.062 534.75 203.417 532.25 203.625C531.083 203.625 530.062 203.25 529.188 202.5C528.354 201.708 527.938 200.729 527.938 199.562V188.875V186.25C528.062 184 528.854 182.062 530.312 180.438C531.771 178.812 533.458 177.521 535.375 176.562C537.292 175.562 539.292 174.812 541.375 174.312C543.5 173.812 545.646 173.562 547.812 173.562ZM589.25 165C590.417 165 591.417 165.396 592.25 166.188C593.083 166.938 593.521 167.896 593.562 169.062V174.5H614.812C615.979 174.5 616.979 174.896 617.812 175.688C618.604 176.521 619 177.521 619 178.688C619 179.854 618.583 180.854 617.75 181.688C616.958 182.479 615.979 182.875 614.812 182.875H593.562V184.125C593.521 185.833 593.625 187.417 593.875 188.875C594.167 190.292 594.833 191.562 595.875 192.688C596.917 193.812 598.229 194.417 599.812 194.5H615.062C616.229 194.542 617.188 194.979 617.938 195.812C618.729 196.646 619.125 197.646 619.125 198.812C619.083 199.938 618.667 200.896 617.875 201.688C617.125 202.438 616.188 202.833 615.062 202.875H597.688C594.771 202.708 592.354 201.729 590.438 199.938C588.562 198.104 587.208 195.875 586.375 193.25C585.583 190.625 585.167 187.833 585.125 184.875V182.875H577.938C576.771 182.875 575.792 182.458 575 181.625C574.167 180.833 573.75 179.854 573.75 178.688C573.75 177.521 574.146 176.542 574.938 175.75C575.771 174.917 576.771 174.5 577.938 174.5H585.125V169.062C585.167 167.938 585.583 167 586.375 166.25C587.167 165.458 588.125 165.042 589.25 165ZM637.938 202.875C634.271 202.75 631.5 201.896 629.625 200.312C627.75 198.688 626.396 196.875 625.562 194.875C624.729 192.833 624.312 190.771 624.312 188.688C624.312 186.521 624.708 184.438 625.5 182.438C626.333 180.396 627.688 178.583 629.562 177C631.479 175.375 633.896 174.542 636.812 174.5H660.562C661.729 174.5 662.708 174.896 663.5 175.688C664.333 176.438 664.75 177.354 664.75 178.438C664.75 179.562 664.333 180.521 663.5 181.312C662.708 182.062 661.729 182.438 660.562 182.438H637.188C636.271 182.438 635.458 182.75 634.75 183.375C634.083 184 633.583 184.812 633.25 185.812C632.958 186.812 632.812 187.792 632.812 188.75C632.812 189.792 632.958 190.812 633.25 191.812C633.583 192.812 634.083 193.625 634.75 194.25C635.458 194.833 636.271 195.146 637.188 195.188H660.562C661.729 195.188 662.708 195.562 663.5 196.312C664.333 197.062 664.75 197.958 664.75 199C664.75 200.083 664.333 201 663.5 201.75C662.708 202.5 661.729 202.875 660.562 202.875H637.938ZM664 188.562C664 189.354 663.646 190.042 662.938 190.625C662.312 191.167 661.521 191.438 660.562 191.438H640.125C639.167 191.438 638.354 191.167 637.688 190.625C637.021 190.042 636.688 189.354 636.688 188.562C636.688 187.812 637.021 187.146 637.688 186.562C638.354 186.021 639.167 185.75 640.125 185.75H660.562C661.521 185.75 662.333 186.042 663 186.625C663.667 187.167 664 187.812 664 188.562ZM673.25 182.375C674.042 180.375 675.375 178.583 677.25 177C679.167 175.375 681.583 174.542 684.5 174.5H708C709.167 174.5 710.146 174.917 710.938 175.75C711.771 176.542 712.188 177.521 712.188 178.688C712.188 179.854 711.771 180.854 710.938 181.688C710.146 182.479 709.167 182.875 708 182.875H684.25C683.458 182.875 682.771 183.208 682.188 183.875C681.604 184.5 681.146 185.25 680.812 186.125C680.521 187 680.375 187.833 680.375 188.625V199.562C680.125 202.062 678.75 203.417 676.25 203.625C675.083 203.625 674.062 203.25 673.188 202.5C672.354 201.708 671.938 200.729 671.938 199.562V188.688H672C672 186.521 672.417 184.417 673.25 182.375ZM753.312 199.562V184.5C753.312 183.458 752.771 182.917 751.688 182.875H729.812C729.021 182.917 728.333 183.271 727.75 183.938C727.167 184.562 726.729 185.312 726.438 186.188C726.188 187.021 726.062 187.875 726.062 188.75C726.062 189.583 726.188 190.438 726.438 191.312C726.729 192.146 727.167 192.896 727.75 193.562C728.333 194.188 729.021 194.5 729.812 194.5H745.812C746.979 194.5 747.958 194.917 748.75 195.75C749.583 196.542 750 197.521 750 198.688C750 199.854 749.583 200.833 748.75 201.625C747.958 202.458 746.979 202.875 745.812 202.875H730.062C727.146 202.833 724.729 202.021 722.812 200.438C720.938 198.812 719.583 197 718.75 195C717.958 192.958 717.562 190.854 717.562 188.688C717.562 186.604 717.979 184.562 718.812 182.562C719.646 180.521 721 178.708 722.875 177.125C724.75 175.5 727.521 174.625 731.188 174.5H757.438C758.604 174.5 759.604 174.896 760.438 175.688C761.271 176.438 761.708 177.396 761.75 178.562V199.562C761.75 200.729 761.312 201.708 760.438 202.5C759.604 203.25 758.604 203.625 757.438 203.625C754.938 203.417 753.562 202.062 753.312 199.562ZM782.5 202.875C778.833 202.75 776.062 201.896 774.188 200.312C772.312 198.688 770.958 196.875 770.125 194.875C769.292 192.833 768.875 190.771 768.875 188.688C768.875 186.521 769.271 184.438 770.062 182.438C770.896 180.396 772.25 178.583 774.125 177C776.042 175.375 778.458 174.542 781.375 174.5H805.125C806.292 174.5 807.271 174.917 808.062 175.75C808.896 176.542 809.312 177.521 809.312 178.688C809.312 179.854 808.896 180.854 808.062 181.688C807.271 182.479 806.292 182.875 805.125 182.875H781.125C780.333 182.875 779.646 183.208 779.062 183.875C778.479 184.5 778.042 185.25 777.75 186.125C777.5 186.958 777.375 187.792 777.375 188.625C777.375 189.5 777.5 190.375 777.75 191.25C778.042 192.083 778.479 192.833 779.062 193.5C779.646 194.125 780.333 194.458 781.125 194.5H805.125C806.292 194.5 807.271 194.917 808.062 195.75C808.896 196.542 809.312 197.521 809.312 198.688C809.312 199.854 808.896 200.833 808.062 201.625C807.271 202.458 806.292 202.875 805.125 202.875H782.5ZM829.438 165C830.604 165 831.604 165.396 832.438 166.188C833.271 166.938 833.708 167.896 833.75 169.062V174.5H855C856.167 174.5 857.167 174.896 858 175.688C858.792 176.521 859.188 177.521 859.188 178.688C859.188 179.854 858.771 180.854 857.938 181.688C857.146 182.479 856.167 182.875 855 182.875H833.75V184.125C833.708 185.833 833.812 187.417 834.062 188.875C834.354 190.292 835.021 191.562 836.062 192.688C837.104 193.812 838.417 194.417 840 194.5H855.25C856.417 194.542 857.375 194.979 858.125 195.812C858.917 196.646 859.312 197.646 859.312 198.812C859.271 199.938 858.854 200.896 858.062 201.688C857.312 202.438 856.375 202.833 855.25 202.875H837.875C834.958 202.708 832.542 201.729 830.625 199.938C828.75 198.104 827.396 195.875 826.562 193.25C825.771 190.625 825.354 187.833 825.312 184.875V182.875H818.125C816.958 182.875 815.979 182.458 815.188 181.625C814.354 180.833 813.938 179.854 813.938 178.688C813.938 177.521 814.333 176.542 815.125 175.75C815.958 174.917 816.958 174.5 818.125 174.5H825.312V169.062C825.354 167.938 825.771 167 826.562 166.25C827.354 165.458 828.312 165.042 829.438 165ZM869.625 173.875C870.75 173.917 871.708 174.333 872.5 175.125C873.292 175.875 873.708 176.812 873.75 177.938V199.562C873.5 202.062 872.125 203.417 869.625 203.625C868.458 203.625 867.438 203.25 866.562 202.5C865.729 201.708 865.312 200.729 865.312 199.562V177.938C865.354 176.771 865.792 175.812 866.625 175.062C867.458 174.271 868.458 173.875 869.625 173.875ZM864.375 165.75C864.375 164.583 864.875 163.583 865.875 162.75C866.875 161.917 868.083 161.5 869.5 161.5C870.917 161.5 872.125 161.917 873.125 162.75C874.125 163.583 874.625 164.583 874.625 165.75C874.625 166.958 874.125 167.979 873.125 168.812C872.125 169.646 870.917 170.062 869.5 170.062C868.083 170.062 866.875 169.646 865.875 168.812C864.875 167.979 864.375 166.958 864.375 165.75ZM891.25 199.562C889.125 196.688 887 192.917 884.875 188.25L880.812 179.5C880.604 179.042 880.479 178.542 880.438 178C880.354 176.833 880.708 175.833 881.5 175C882.292 174.167 883.333 173.75 884.625 173.75C886.042 173.75 887.083 174.042 887.75 174.625C888.458 175.167 889.021 175.875 889.438 176.75L892.375 184C893.125 185.708 893.854 187.333 894.562 188.875C895.312 190.375 896.146 191.75 897.062 193C898.021 194.25 899.083 194.917 900.25 195C901.375 194.917 902.438 194.25 903.438 193C904.312 191.75 905.104 190.375 905.812 188.875C906.562 187.333 907.312 185.708 908.062 184L911 176.75C911.417 175.875 911.958 175.167 912.625 174.625C913.333 174.042 914.396 173.75 915.812 173.75C917.104 173.75 918.146 174.167 918.938 175C919.729 175.833 920.083 176.833 920 178C919.958 178.542 919.833 179.042 919.625 179.5L915.562 188.25C913.438 192.917 911.312 196.688 909.188 199.562C907.146 202.396 904.167 203.833 900.25 203.875C896.292 203.833 893.292 202.396 891.25 199.562ZM939.75 202.875C936.083 202.75 933.312 201.896 931.438 200.312C929.562 198.688 928.208 196.875 927.375 194.875C926.542 192.833 926.125 190.771 926.125 188.688C926.125 186.521 926.521 184.438 927.312 182.438C928.146 180.396 929.5 178.583 931.375 177C933.292 175.375 935.708 174.542 938.625 174.5H962.375C963.542 174.5 964.521 174.896 965.312 175.688C966.146 176.438 966.562 177.354 966.562 178.438C966.562 179.562 966.146 180.521 965.312 181.312C964.521 182.062 963.542 182.438 962.375 182.438H939C938.083 182.438 937.271 182.75 936.562 183.375C935.896 184 935.396 184.812 935.062 185.812C934.771 186.812 934.625 187.792 934.625 188.75C934.625 189.792 934.771 190.812 935.062 191.812C935.396 192.812 935.896 193.625 936.562 194.25C937.271 194.833 938.083 195.146 939 195.188H962.375C963.542 195.188 964.521 195.562 965.312 196.312C966.146 197.062 966.562 197.958 966.562 199C966.562 200.083 966.146 201 965.312 201.75C964.521 202.5 963.542 202.875 962.375 202.875H939.75ZM965.812 188.562C965.812 189.354 965.458 190.042 964.75 190.625C964.125 191.167 963.333 191.438 962.375 191.438H941.938C940.979 191.438 940.167 191.167 939.5 190.625C938.833 190.042 938.5 189.354 938.5 188.562C938.5 187.812 938.833 187.146 939.5 186.562C940.167 186.021 940.979 185.75 941.938 185.75H962.375C963.333 185.75 964.146 186.042 964.812 186.625C965.479 187.167 965.812 187.812 965.812 188.562ZM1017.62 166H1044C1045.17 166.042 1046.12 166.479 1046.88 167.312C1047.67 168.146 1048.06 169.146 1048.06 170.312C1047.85 172.812 1046.5 174.167 1044 174.375H1019.75C1018.17 174.458 1016.85 175.062 1015.81 176.188C1014.77 177.312 1014 178.604 1013.5 180.062C1013.04 181.479 1012.81 182.938 1012.81 184.438C1012.81 185.938 1013.04 187.417 1013.5 188.875C1014 190.292 1014.77 191.562 1015.81 192.688C1016.85 193.812 1018.17 194.417 1019.75 194.5H1038.75C1039.5 194.458 1039.9 194.042 1039.94 193.25V189.625C1039.9 188.792 1039.5 188.375 1038.75 188.375H1022.75C1021.58 188.375 1020.58 187.979 1019.75 187.188C1018.96 186.354 1018.56 185.354 1018.56 184.188C1018.56 183.021 1018.96 182.021 1019.75 181.188C1020.58 180.396 1021.58 180 1022.75 180H1044.12C1045.29 180 1046.29 180.396 1047.12 181.188C1047.88 181.979 1048.27 182.938 1048.31 184.062V184.188V198.812C1048.27 199.938 1047.88 200.875 1047.12 201.625C1046.33 202.417 1045.38 202.833 1044.25 202.875H1017.62C1014.71 202.708 1012.29 201.604 1010.38 199.562C1008.5 197.479 1007.15 195.125 1006.31 192.5C1005.52 189.875 1005.12 187.188 1005.12 184.438C1005.12 181.688 1005.54 179 1006.38 176.375C1007.21 173.75 1008.56 171.417 1010.44 169.375C1012.31 167.292 1014.71 166.167 1017.62 166ZM1091 199.562V184.5C1091 183.458 1090.46 182.917 1089.38 182.875H1067.5C1066.71 182.917 1066.02 183.271 1065.44 183.938C1064.85 184.562 1064.42 185.312 1064.12 186.188C1063.88 187.021 1063.75 187.875 1063.75 188.75C1063.75 189.583 1063.88 190.438 1064.12 191.312C1064.42 192.146 1064.85 192.896 1065.44 193.562C1066.02 194.188 1066.71 194.5 1067.5 194.5H1083.5C1084.67 194.5 1085.65 194.917 1086.44 195.75C1087.27 196.542 1087.69 197.521 1087.69 198.688C1087.69 199.854 1087.27 200.833 1086.44 201.625C1085.65 202.458 1084.67 202.875 1083.5 202.875H1067.75C1064.83 202.833 1062.42 202.021 1060.5 200.438C1058.62 198.812 1057.27 197 1056.44 195C1055.65 192.958 1055.25 190.854 1055.25 188.688C1055.25 186.604 1055.67 184.562 1056.5 182.562C1057.33 180.521 1058.69 178.708 1060.56 177.125C1062.44 175.5 1065.21 174.625 1068.88 174.5H1095.12C1096.29 174.5 1097.29 174.896 1098.12 175.688C1098.96 176.438 1099.4 177.396 1099.44 178.562V199.562C1099.44 200.729 1099 201.708 1098.12 202.5C1097.29 203.25 1096.29 203.625 1095.12 203.625C1092.62 203.417 1091.25 202.062 1091 199.562ZM1120.75 173.562C1122.21 173.562 1123.62 173.812 1125 174.312C1126.42 174.812 1127.77 175.542 1129.06 176.5C1129.27 176.708 1129.5 176.917 1129.75 177.125C1129.96 176.917 1130.19 176.708 1130.44 176.5C1131.73 175.542 1133.06 174.812 1134.44 174.312C1135.85 173.812 1137.27 173.562 1138.69 173.562C1140.15 173.562 1141.56 173.812 1142.94 174.312C1144.35 174.812 1145.69 175.562 1146.94 176.562C1148.23 177.521 1149.35 178.812 1150.31 180.438C1151.31 182.062 1151.81 184 1151.81 186.25V199.562C1151.56 202.062 1150.19 203.417 1147.69 203.625C1146.52 203.625 1145.5 203.25 1144.62 202.5C1143.79 201.708 1143.38 200.729 1143.38 199.562V186.75C1143.38 185.75 1143.19 184.917 1142.81 184.25C1142.44 183.542 1142.02 183 1141.56 182.625C1141.1 182.208 1140.62 181.917 1140.12 181.75C1139.62 181.542 1139.12 181.438 1138.62 181.438C1138.12 181.438 1137.62 181.542 1137.12 181.75C1136.67 181.917 1136.21 182.208 1135.75 182.625C1135.29 183 1134.88 183.542 1134.5 184.25C1134.12 184.917 1133.92 185.75 1133.88 186.75V199.562C1133.62 202.062 1132.25 203.417 1129.75 203.625C1128.58 203.625 1127.56 203.25 1126.69 202.5C1125.85 201.708 1125.44 200.729 1125.44 199.562V186.75C1125.44 185.75 1125.25 184.917 1124.88 184.25C1124.5 183.542 1124.08 183 1123.62 182.625C1123.17 182.208 1122.69 181.917 1122.19 181.75C1121.69 181.542 1121.19 181.438 1120.69 181.438C1120.19 181.438 1119.69 181.542 1119.19 181.75C1118.73 181.917 1118.27 182.208 1117.81 182.625C1117.35 183 1116.94 183.542 1116.56 184.25C1116.19 184.917 1115.98 185.75 1115.94 186.75V199.562C1115.73 202.062 1114.38 203.417 1111.88 203.625C1110.71 203.625 1109.69 203.25 1108.81 202.5C1107.98 201.708 1107.56 200.729 1107.56 199.562V186.25C1107.65 184 1108.17 182.062 1109.12 180.438C1110.08 178.812 1111.21 177.521 1112.5 176.562C1113.79 175.562 1115.12 174.812 1116.5 174.312C1117.92 173.812 1119.33 173.562 1120.75 173.562ZM1172.38 202.875C1168.71 202.75 1165.94 201.896 1164.06 200.312C1162.19 198.688 1160.83 196.875 1160 194.875C1159.17 192.833 1158.75 190.771 1158.75 188.688C1158.75 186.521 1159.15 184.438 1159.94 182.438C1160.77 180.396 1162.12 178.583 1164 177C1165.92 175.375 1168.33 174.542 1171.25 174.5H1195C1196.17 174.5 1197.15 174.896 1197.94 175.688C1198.77 176.438 1199.19 177.354 1199.19 178.438C1199.19 179.562 1198.77 180.521 1197.94 181.312C1197.15 182.062 1196.17 182.438 1195 182.438H1171.62C1170.71 182.438 1169.9 182.75 1169.19 183.375C1168.52 184 1168.02 184.812 1167.69 185.812C1167.4 186.812 1167.25 187.792 1167.25 188.75C1167.25 189.792 1167.4 190.812 1167.69 191.812C1168.02 192.812 1168.52 193.625 1169.19 194.25C1169.9 194.833 1170.71 195.146 1171.62 195.188H1195C1196.17 195.188 1197.15 195.562 1197.94 196.312C1198.77 197.062 1199.19 197.958 1199.19 199C1199.19 200.083 1198.77 201 1197.94 201.75C1197.15 202.5 1196.17 202.875 1195 202.875H1172.38ZM1198.44 188.562C1198.44 189.354 1198.08 190.042 1197.38 190.625C1196.75 191.167 1195.96 191.438 1195 191.438H1174.56C1173.6 191.438 1172.79 191.167 1172.12 190.625C1171.46 190.042 1171.12 189.354 1171.12 188.562C1171.12 187.812 1171.46 187.146 1172.12 186.562C1172.79 186.021 1173.6 185.75 1174.56 185.75H1195C1195.96 185.75 1196.77 186.042 1197.44 186.625C1198.1 187.167 1198.44 187.812 1198.44 188.562ZM1248.25 199.562C1246.12 196.688 1244 192.917 1241.88 188.25L1237.81 179.5C1237.6 179.042 1237.48 178.542 1237.44 178C1237.35 176.833 1237.71 175.833 1238.5 175C1239.29 174.167 1240.33 173.75 1241.62 173.75C1243.04 173.75 1244.08 174.042 1244.75 174.625C1245.46 175.167 1246.02 175.875 1246.44 176.75L1249.38 184C1250.12 185.708 1250.85 187.333 1251.56 188.875C1252.31 190.375 1253.15 191.75 1254.06 193C1255.02 194.25 1256.08 194.917 1257.25 195C1258.38 194.917 1259.44 194.25 1260.44 193C1261.31 191.75 1262.1 190.375 1262.81 188.875C1263.56 187.333 1264.31 185.708 1265.06 184L1268 176.75C1268.42 175.875 1268.96 175.167 1269.62 174.625C1270.33 174.042 1271.4 173.75 1272.81 173.75C1274.1 173.75 1275.15 174.167 1275.94 175C1276.73 175.833 1277.08 176.833 1277 178C1276.96 178.542 1276.83 179.042 1276.62 179.5L1272.56 188.25C1270.44 192.917 1268.31 196.688 1266.19 199.562C1264.15 202.396 1261.17 203.833 1257.25 203.875C1253.29 203.833 1250.29 202.396 1248.25 199.562ZM1288.81 181.688C1288.1 180.771 1287.81 179.75 1287.94 178.625C1288.1 177.5 1288.65 176.562 1289.56 175.812L1301.88 166.25C1302.79 165.417 1303.83 165 1305 165C1306.12 165.042 1307.08 165.458 1307.88 166.25C1308.67 167 1309.08 167.938 1309.12 169.062V199.688C1308.88 202.188 1307.5 203.542 1305 203.75C1303.83 203.75 1302.81 203.375 1301.94 202.625C1301.1 201.833 1300.69 200.854 1300.69 199.688V177.812L1294.69 182.438C1293.77 183.146 1292.75 183.417 1291.62 183.25C1290.46 183.125 1289.52 182.604 1288.81 181.688ZM1340.38 203.875C1338.71 203.875 1337.31 203.292 1336.19 202.125C1335.1 200.958 1334.56 199.5 1334.56 197.75C1334.56 196 1335.1 194.542 1336.19 193.375C1337.31 192.208 1338.71 191.625 1340.38 191.625C1342.04 191.625 1343.44 192.208 1344.56 193.375C1345.69 194.542 1346.25 196 1346.25 197.75C1346.25 199.5 1345.69 200.958 1344.56 202.125C1343.44 203.292 1342.04 203.875 1340.38 203.875ZM1385.62 166C1387.75 166.042 1389.65 166.708 1391.31 168C1392.98 169.292 1394.31 170.833 1395.31 172.625C1396.35 174.417 1397.12 176.312 1397.62 178.312C1398.12 180.312 1398.38 182.354 1398.38 184.438C1398.38 187.188 1397.94 189.896 1397.06 192.562C1396.23 195.188 1394.83 197.521 1392.88 199.562C1390.96 201.604 1388.54 202.708 1385.62 202.875H1365.81C1362.9 202.75 1360.46 201.667 1358.5 199.625C1356.54 197.583 1355.15 195.229 1354.31 192.562C1353.52 189.896 1353.12 187.188 1353.12 184.438C1353.12 181.688 1353.54 179 1354.38 176.375C1355.21 173.708 1356.58 171.354 1358.5 169.312C1360.46 167.229 1362.9 166.125 1365.81 166H1367H1384.44H1385.62ZM1383.5 194.5C1385.08 194.417 1386.4 193.833 1387.44 192.75C1388.52 191.625 1389.29 190.333 1389.75 188.875C1390.21 187.417 1390.44 185.938 1390.44 184.438C1390.44 182.938 1390.19 181.479 1389.69 180.062C1389.23 178.604 1388.48 177.312 1387.44 176.188C1386.4 175.062 1385.08 174.458 1383.5 174.375H1367.75C1366.17 174.458 1364.85 175.062 1363.81 176.188C1362.77 177.312 1362 178.604 1361.5 180.062C1361.04 181.479 1360.81 182.938 1360.81 184.438C1360.81 185.938 1361.04 187.417 1361.5 188.875C1361.96 190.333 1362.71 191.625 1363.75 192.75C1364.83 193.833 1366.17 194.417 1367.75 194.5H1383.5ZM581.531 250.375C582.323 252.042 582.719 253.729 582.719 255.438C582.719 257.104 582.302 258.771 581.469 260.438C580.635 262.062 579.281 263.521 577.406 264.812C575.531 266.062 573.135 266.688 570.219 266.688H569.844C569.594 266.729 569.344 266.75 569.094 266.75H543.969C542.844 266.708 541.885 266.312 541.094 265.562C540.344 264.771 539.948 263.812 539.906 262.688V234.062C539.948 232.938 540.344 232 541.094 231.25C541.885 230.458 542.844 230.042 543.969 230H565.469C565.719 230 565.969 230.021 566.219 230.062H566.594C569.51 230.146 571.906 230.812 573.781 232.062C575.656 233.312 577.01 234.75 577.844 236.375C578.677 237.958 579.094 239.562 579.094 241.188C579.094 242.854 578.698 244.479 577.906 246.062C577.865 246.146 577.823 246.208 577.781 246.25C579.49 247.458 580.74 248.833 581.531 250.375ZM570.594 258.375C571.385 258.417 572.031 258.271 572.531 257.938C573.073 257.604 573.469 257.229 573.719 256.812C573.969 256.354 574.094 255.896 574.094 255.438C574.094 255.146 573.969 254.75 573.719 254.25C573.469 253.708 573.073 253.271 572.531 252.938C572.031 252.604 571.385 252.417 570.594 252.375H566.594H548.344V256.688C548.344 257.812 548.927 258.375 550.094 258.375H550.594H570.594ZM568.969 243.438C569.469 243.146 569.844 242.812 570.094 242.438C570.344 242.021 570.469 241.604 570.469 241.188C570.469 240.771 570.344 240.375 570.094 240C569.844 239.583 569.448 239.229 568.906 238.938C568.406 238.604 567.76 238.417 566.969 238.375H550.094C548.927 238.375 548.344 238.938 548.344 240.062V244H566.969C567.76 243.958 568.427 243.771 568.969 243.438ZM629.594 234.188C629.594 235.354 629.177 236.333 628.344 237.125C627.552 237.958 626.573 238.375 625.406 238.375H600.406C599.615 238.417 598.948 238.604 598.406 238.938C597.906 239.229 597.531 239.583 597.281 240C597.031 240.375 596.906 240.771 596.906 241.188C596.906 241.604 597.031 242.021 597.281 242.438C597.531 242.812 597.906 243.167 598.406 243.5C598.948 243.792 599.615 243.958 600.406 244H618.156C621.073 244.083 623.469 244.771 625.344 246.062C627.26 247.312 628.615 248.771 629.406 250.438C630.24 252.062 630.656 253.729 630.656 255.438C630.656 257.104 630.24 258.771 629.406 260.438C628.573 262.062 627.219 263.521 625.344 264.812C623.469 266.062 621.073 266.688 618.156 266.688H617.781C617.531 266.729 617.281 266.75 617.031 266.75H593.406C592.24 266.75 591.24 266.354 590.406 265.562C589.615 264.729 589.219 263.729 589.219 262.562C589.219 261.396 589.635 260.417 590.469 259.625C591.26 258.792 592.24 258.375 593.406 258.375H618.531C619.323 258.417 619.969 258.271 620.469 257.938C621.01 257.604 621.406 257.229 621.656 256.812C621.906 256.354 622.031 255.896 622.031 255.438C622.031 255.146 621.906 254.75 621.656 254.25C621.406 253.708 621.01 253.271 620.469 252.938C619.969 252.604 619.323 252.417 618.531 252.375H600.781C597.865 252.292 595.448 251.625 593.531 250.375C591.656 249.125 590.302 247.708 589.469 246.125C588.677 244.5 588.281 242.854 588.281 241.188C588.281 239.562 588.698 237.958 589.531 236.375C590.365 234.75 591.719 233.312 593.594 232.062C595.469 230.812 597.865 230.146 600.781 230.062H601.156C601.406 230.021 601.656 230 601.906 230H625.406C626.573 230 627.552 230.417 628.344 231.25C629.177 232.042 629.594 233.021 629.594 234.188ZM679.344 250.375C680.135 252.042 680.531 253.729 680.531 255.438C680.531 257.104 680.115 258.771 679.281 260.438C678.448 262.062 677.094 263.521 675.219 264.812C673.344 266.062 670.948 266.688 668.031 266.688H667.656C667.406 266.729 667.156 266.75 666.906 266.75H641.781C640.656 266.708 639.698 266.312 638.906 265.562C638.156 264.771 637.76 263.812 637.719 262.688V234.062C637.76 232.938 638.156 232 638.906 231.25C639.698 230.458 640.656 230.042 641.781 230H663.281C663.531 230 663.781 230.021 664.031 230.062H664.406C667.323 230.146 669.719 230.812 671.594 232.062C673.469 233.312 674.823 234.75 675.656 236.375C676.49 237.958 676.906 239.562 676.906 241.188C676.906 242.854 676.51 244.479 675.719 246.062C675.677 246.146 675.635 246.208 675.594 246.25C677.302 247.458 678.552 248.833 679.344 250.375ZM668.406 258.375C669.198 258.417 669.844 258.271 670.344 257.938C670.885 257.604 671.281 257.229 671.531 256.812C671.781 256.354 671.906 255.896 671.906 255.438C671.906 255.146 671.781 254.75 671.531 254.25C671.281 253.708 670.885 253.271 670.344 252.938C669.844 252.604 669.198 252.417 668.406 252.375H664.406H646.156V256.688C646.156 257.812 646.74 258.375 647.906 258.375H648.406H668.406ZM666.781 243.438C667.281 243.146 667.656 242.812 667.906 242.438C668.156 242.021 668.281 241.604 668.281 241.188C668.281 240.771 668.156 240.375 667.906 240C667.656 239.583 667.26 239.229 666.719 238.938C666.219 238.604 665.573 238.417 664.781 238.375H647.906C646.74 238.375 646.156 238.938 646.156 240.062V244H664.781C665.573 243.958 666.24 243.771 666.781 243.438ZM733.031 257.188C733.031 256.021 733.427 255.042 734.219 254.25C735.052 253.417 736.052 253 737.219 253H746.781L745.156 248.375C744.49 246.667 743.823 245.062 743.156 243.562C742.531 242.021 741.802 240.625 740.969 239.375C740.219 238.125 739.365 237.458 738.406 237.375C737.406 237.458 736.51 238.125 735.719 239.375C734.927 240.625 734.198 242.021 733.531 243.562C732.906 245.062 732.26 246.667 731.594 248.375L725.656 264.625C725.24 265.5 724.698 266.229 724.031 266.812C723.406 267.354 722.448 267.625 721.156 267.625C719.948 267.625 718.948 267.208 718.156 266.375C717.406 265.542 717.073 264.542 717.156 263.375C717.198 262.833 717.323 262.333 717.531 261.875L724.406 244.125C726.323 239.458 728.24 235.688 730.156 232.812C732.031 229.979 734.781 228.542 738.406 228.5C741.99 228.542 744.719 229.979 746.594 232.812C748.51 235.604 750.427 239.375 752.344 244.125L759.219 261.875C759.427 262.333 759.552 262.833 759.594 263.375C759.677 264.542 759.323 265.542 758.531 266.375C757.781 267.208 756.802 267.625 755.594 267.625C754.219 267.625 753.198 267.354 752.531 266.812C751.906 266.229 751.385 265.5 750.969 264.625L749.781 261.375H737.219C736.052 261.375 735.073 260.958 734.281 260.125C733.448 259.333 733.031 258.354 733.031 257.188ZM800.656 233.062C800.906 230.562 802.281 229.208 804.781 229C805.948 229 806.948 229.396 807.781 230.188C808.656 230.938 809.094 231.896 809.094 233.062V262.812C809.052 263.979 808.615 264.958 807.781 265.75C806.948 266.5 805.948 266.875 804.781 266.875H778.531C774.865 266.75 772.094 265.896 770.219 264.312C768.344 262.688 766.99 260.875 766.156 258.875C765.323 256.833 764.906 254.771 764.906 252.688C764.906 250.521 765.302 248.438 766.094 246.438C766.927 244.396 768.281 242.583 770.156 241C772.073 239.375 774.49 238.542 777.406 238.5H793.156C794.323 238.5 795.302 238.917 796.094 239.75C796.927 240.542 797.344 241.521 797.344 242.688C797.344 243.854 796.927 244.854 796.094 245.688C795.302 246.479 794.323 246.875 793.156 246.875H777.156C776.365 246.875 775.677 247.208 775.094 247.875C774.51 248.5 774.073 249.25 773.781 250.125C773.531 250.958 773.406 251.792 773.406 252.625C773.406 253.5 773.531 254.375 773.781 255.25C774.073 256.083 774.51 256.833 775.094 257.5C775.677 258.125 776.365 258.458 777.156 258.5H799.031C800.115 258.458 800.656 257.917 800.656 256.875V233.062ZM827.219 263.562C825.094 260.688 822.969 256.917 820.844 252.25L816.781 243.5C816.573 243.042 816.448 242.542 816.406 242C816.323 240.833 816.677 239.833 817.469 239C818.26 238.167 819.302 237.75 820.594 237.75C822.01 237.75 823.052 238.042 823.719 238.625C824.427 239.167 824.99 239.875 825.406 240.75L828.344 248C829.094 249.708 829.823 251.333 830.531 252.875C831.281 254.375 832.115 255.75 833.031 257C833.99 258.25 835.052 258.917 836.219 259C837.344 258.917 838.406 258.25 839.406 257C840.281 255.75 841.073 254.375 841.781 252.875C842.531 251.333 843.281 249.708 844.031 248L846.969 240.75C847.385 239.875 847.927 239.167 848.594 238.625C849.302 238.042 850.365 237.75 851.781 237.75C853.073 237.75 854.115 238.167 854.906 239C855.698 239.833 856.052 240.833 855.969 242C855.927 242.542 855.802 243.042 855.594 243.5L851.531 252.25C849.406 256.917 847.281 260.688 845.156 263.562C843.115 266.396 840.135 267.833 836.219 267.875C832.26 267.833 829.26 266.396 827.219 263.562ZM875.719 266.875C872.052 266.75 869.281 265.896 867.406 264.312C865.531 262.688 864.177 260.875 863.344 258.875C862.51 256.833 862.094 254.771 862.094 252.688C862.094 250.521 862.49 248.438 863.281 246.438C864.115 244.396 865.469 242.583 867.344 241C869.26 239.375 871.677 238.542 874.594 238.5H898.344C899.51 238.5 900.49 238.896 901.281 239.688C902.115 240.438 902.531 241.354 902.531 242.438C902.531 243.562 902.115 244.521 901.281 245.312C900.49 246.062 899.51 246.438 898.344 246.438H874.969C874.052 246.438 873.24 246.75 872.531 247.375C871.865 248 871.365 248.812 871.031 249.812C870.74 250.812 870.594 251.792 870.594 252.75C870.594 253.792 870.74 254.812 871.031 255.812C871.365 256.812 871.865 257.625 872.531 258.25C873.24 258.833 874.052 259.146 874.969 259.188H898.344C899.51 259.188 900.49 259.562 901.281 260.312C902.115 261.062 902.531 261.958 902.531 263C902.531 264.083 902.115 265 901.281 265.75C900.49 266.5 899.51 266.875 898.344 266.875H875.719ZM901.781 252.562C901.781 253.354 901.427 254.042 900.719 254.625C900.094 255.167 899.302 255.438 898.344 255.438H877.906C876.948 255.438 876.135 255.167 875.469 254.625C874.802 254.042 874.469 253.354 874.469 252.562C874.469 251.812 874.802 251.146 875.469 250.562C876.135 250.021 876.948 249.75 877.906 249.75H898.344C899.302 249.75 900.115 250.042 900.781 250.625C901.448 251.167 901.781 251.812 901.781 252.562ZM929.656 237.562C931.823 237.562 933.948 237.812 936.031 238.312C938.156 238.812 940.177 239.562 942.094 240.562C944.01 241.521 945.698 242.812 947.156 244.438C948.656 246.062 949.469 248 949.594 250.25V252.875V263.562C949.344 266.062 947.969 267.417 945.469 267.625C944.302 267.625 943.281 267.25 942.406 266.5C941.573 265.708 941.156 264.729 941.156 263.562V260.812V252.188C941.073 250.896 940.573 249.833 939.656 249C938.781 248.125 937.781 247.438 936.656 246.938C935.573 246.438 934.427 246.062 933.219 245.812C932.052 245.562 930.865 245.438 929.656 245.438C928.448 245.438 927.24 245.562 926.031 245.812C924.865 246.062 923.719 246.438 922.594 246.938C921.51 247.438 920.51 248.125 919.594 249C918.719 249.833 918.24 250.896 918.156 252.188V260.812V263.562C917.948 266.062 916.594 267.417 914.094 267.625C912.927 267.625 911.906 267.25 911.031 266.5C910.198 265.708 909.781 264.729 909.781 263.562V252.875V250.25C909.906 248 910.698 246.062 912.156 244.438C913.615 242.812 915.302 241.521 917.219 240.562C919.135 239.562 921.135 238.812 923.219 238.312C925.344 237.812 927.49 237.562 929.656 237.562ZM971.094 229C972.26 229 973.26 229.396 974.094 230.188C974.927 230.938 975.365 231.896 975.406 233.062V238.5H996.656C997.823 238.5 998.823 238.896 999.656 239.688C1000.45 240.521 1000.84 241.521 1000.84 242.688C1000.84 243.854 1000.43 244.854 999.594 245.688C998.802 246.479 997.823 246.875 996.656 246.875H975.406V248.125C975.365 249.833 975.469 251.417 975.719 252.875C976.01 254.292 976.677 255.562 977.719 256.688C978.76 257.812 980.073 258.417 981.656 258.5H996.906C998.073 258.542 999.031 258.979 999.781 259.812C1000.57 260.646 1000.97 261.646 1000.97 262.812C1000.93 263.938 1000.51 264.896 999.719 265.688C998.969 266.438 998.031 266.833 996.906 266.875H979.531C976.615 266.708 974.198 265.729 972.281 263.938C970.406 262.104 969.052 259.875 968.219 257.25C967.427 254.625 967.01 251.833 966.969 248.875V246.875H959.781C958.615 246.875 957.635 246.458 956.844 245.625C956.01 244.833 955.594 243.854 955.594 242.688C955.594 241.521 955.99 240.542 956.781 239.75C957.615 238.917 958.615 238.5 959.781 238.5H966.969V233.062C967.01 231.938 967.427 231 968.219 230.25C969.01 229.458 969.969 229.042 971.094 229ZM1026.91 267.938C1024.74 267.938 1022.59 267.688 1020.47 267.188C1018.39 266.688 1016.39 265.958 1014.47 265C1012.55 264 1010.86 262.688 1009.41 261.062C1007.95 259.438 1007.16 257.5 1007.03 255.25V252.625V241.938C1007.03 240.771 1007.45 239.812 1008.28 239.062C1009.16 238.271 1010.18 237.875 1011.34 237.875C1013.84 238.083 1015.2 239.438 1015.41 241.938V244.688V253.312C1015.49 254.604 1015.97 255.688 1016.84 256.562C1017.76 257.396 1018.76 258.062 1019.84 258.562C1020.97 259.062 1022.11 259.438 1023.28 259.688C1024.49 259.938 1025.7 260.062 1026.91 260.062C1028.11 260.062 1029.3 259.938 1030.47 259.688C1031.68 259.438 1032.82 259.062 1033.91 258.562C1035.03 258.062 1036.03 257.396 1036.91 256.562C1037.82 255.688 1038.32 254.604 1038.41 253.312V244.688V241.938C1038.41 240.771 1038.82 239.812 1039.66 239.062C1040.53 238.271 1041.55 237.875 1042.72 237.875C1045.22 238.083 1046.59 239.438 1046.84 241.938V252.625V255.25C1046.72 257.5 1045.91 259.438 1044.41 261.062C1042.95 262.688 1041.26 264 1039.34 265C1037.43 265.958 1035.41 266.688 1033.28 267.188C1031.2 267.688 1029.07 267.938 1026.91 267.938ZM1056.16 246.375C1056.95 244.375 1058.28 242.583 1060.16 241C1062.07 239.375 1064.49 238.542 1067.41 238.5H1090.91C1092.07 238.5 1093.05 238.917 1093.84 239.75C1094.68 240.542 1095.09 241.521 1095.09 242.688C1095.09 243.854 1094.68 244.854 1093.84 245.688C1093.05 246.479 1092.07 246.875 1090.91 246.875H1067.16C1066.36 246.875 1065.68 247.208 1065.09 247.875C1064.51 248.5 1064.05 249.25 1063.72 250.125C1063.43 251 1063.28 251.833 1063.28 252.625V263.562C1063.03 266.062 1061.66 267.417 1059.16 267.625C1057.99 267.625 1056.97 267.25 1056.09 266.5C1055.26 265.708 1054.84 264.729 1054.84 263.562V252.688H1054.91C1054.91 250.521 1055.32 248.417 1056.16 246.375ZM1114.09 266.875C1110.43 266.75 1107.66 265.896 1105.78 264.312C1103.91 262.688 1102.55 260.875 1101.72 258.875C1100.89 256.833 1100.47 254.771 1100.47 252.688C1100.47 250.521 1100.86 248.438 1101.66 246.438C1102.49 244.396 1103.84 242.583 1105.72 241C1107.64 239.375 1110.05 238.542 1112.97 238.5H1136.72C1137.89 238.5 1138.86 238.896 1139.66 239.688C1140.49 240.438 1140.91 241.354 1140.91 242.438C1140.91 243.562 1140.49 244.521 1139.66 245.312C1138.86 246.062 1137.89 246.438 1136.72 246.438H1113.34C1112.43 246.438 1111.61 246.75 1110.91 247.375C1110.24 248 1109.74 248.812 1109.41 249.812C1109.11 250.812 1108.97 251.792 1108.97 252.75C1108.97 253.792 1109.11 254.812 1109.41 255.812C1109.74 256.812 1110.24 257.625 1110.91 258.25C1111.61 258.833 1112.43 259.146 1113.34 259.188H1136.72C1137.89 259.188 1138.86 259.562 1139.66 260.312C1140.49 261.062 1140.91 261.958 1140.91 263C1140.91 264.083 1140.49 265 1139.66 265.75C1138.86 266.5 1137.89 266.875 1136.72 266.875H1114.09ZM1140.16 252.562C1140.16 253.354 1139.8 254.042 1139.09 254.625C1138.47 255.167 1137.68 255.438 1136.72 255.438H1116.28C1115.32 255.438 1114.51 255.167 1113.84 254.625C1113.18 254.042 1112.84 253.354 1112.84 252.562C1112.84 251.812 1113.18 251.146 1113.84 250.562C1114.51 250.021 1115.32 249.75 1116.28 249.75H1136.72C1137.68 249.75 1138.49 250.042 1139.16 250.625C1139.82 251.167 1140.16 251.812 1140.16 252.562ZM1153.97 255.375C1152.84 255.333 1151.89 254.938 1151.09 254.188C1150.3 253.396 1149.89 252.438 1149.84 251.312V229.688C1150.09 227.188 1151.47 225.833 1153.97 225.625C1155.14 225.625 1156.14 226.021 1156.97 226.812C1157.84 227.562 1158.28 228.521 1158.28 229.688V251.312C1158.24 252.479 1157.8 253.458 1156.97 254.25C1156.14 255 1155.14 255.375 1153.97 255.375ZM1159.22 263.5C1159.22 264.667 1158.72 265.667 1157.72 266.5C1156.72 267.333 1155.51 267.75 1154.09 267.75C1152.68 267.75 1151.47 267.333 1150.47 266.5C1149.47 265.667 1148.97 264.667 1148.97 263.5C1148.97 262.292 1149.47 261.271 1150.47 260.438C1151.47 259.604 1152.68 259.188 1154.09 259.188C1155.51 259.188 1156.72 259.604 1157.72 260.438C1158.72 261.271 1159.22 262.292 1159.22 263.5Z" fill="black"/>
<line x1="1539" y1="1065" x2="1699" y2="1065" stroke="black" stroke-width="20"/>
<line x1="1266" y1="954" x2="1426" y2="954" stroke="black" stroke-width="20"/>
<line x1="1540" y1="825" x2="1700" y2="825" stroke="black" stroke-width="20"/>
<line x1="1321" y1="703" x2="1481" y2="703" stroke="black" stroke-width="20"/>
<line x1="1122" y1="547" x2="1282" y2="547" stroke="black" stroke-width="20"/>
<line x1="1380" y1="398" x2="1540" y2="398" stroke="black" stroke-width="20"/>
<path d="M1539 234.5L1699 234.5" stroke="black" stroke-width="20"/>
</svg>
