<svg width="699" height="129" viewBox="0 0 699 129" fill="none" xmlns="http://www.w3.org/2000/svg">
<rect x="199.699" y="1.66415" width="99.8494" height="124.812" fill="white" fill-opacity="0.29"/>
<rect x="399.397" y="1.66415" width="99.8494" height="124.812" fill="white" fill-opacity="0.29"/>
<rect x="299.548" y="1.66415" width="99.8494" height="124.812" fill="white" fill-opacity="0.29"/>
<rect y="1.66415" width="99.8494" height="124.812" fill="white" fill-opacity="0.29"/>
<rect x="499.247" y="1.66415" width="99.8494" height="124.812" fill="white" fill-opacity="0.29"/>
<rect x="599.096" y="1.66415" width="99.8494" height="124.812" fill="white" fill-opacity="0.29"/>
<rect x="99.8494" y="1.66415" width="99.8494" height="124.812" fill="white" fill-opacity="0.29"/>
<path d="M135.282 89.8126L138.492 69.2646L148.181 51.5888" stroke="black" stroke-width="4"/>
<path d="M636.039 89.8126L639.18 69.2646L648.66 51.5888" stroke="black" stroke-width="4"/>
<path d="M240.749 91.3639L240.693 70.5667L247.486 51.5888" stroke="black" stroke-width="4"/>
<path d="M540.454 91.3639L540.396 70.5667L547.326 51.5888" stroke="black" stroke-width="4"/>
<path d="M345.992 91.9178L342.975 71.3405L346.997 51.5888" stroke="black" stroke-width="4"/>
<path d="M452.734 91.6419L446.784 71.7138L447.918 51.5888" stroke="black" stroke-width="4"/>
<path d="M147.601 51.5888L155.385 69.8946L169.651 87.6009" stroke="black" stroke-width="4"/>
<path d="M648.093 51.5888L655.71 69.8946L669.668 87.6009" stroke="black" stroke-width="4"/>
<path d="M247.272 51.5888L251.81 70.9565L262.835 90.8425" stroke="black" stroke-width="4"/>
<path d="M547.108 51.5888L551.737 70.9565L562.984 90.8425" stroke="black" stroke-width="4"/>
<path d="M347.284 51.5888L346.254 71.4543L351.312 93.6224" stroke="black" stroke-width="4"/>
<path d="M446.022 51.5888L442.426 71.1532L444.568 93.7899" stroke="black" stroke-width="4"/>
<path d="M168.315 23.8868C167.739 34.7203 158.393 43.0603 147.402 42.4704C136.41 41.8805 128.004 32.5877 128.581 21.7542C129.158 10.9207 138.503 2.58072 149.495 3.17062C160.486 3.76051 168.892 13.0532 168.315 23.8868Z" fill="white" stroke="black" stroke-width="4"/>
<line y1="-2" x2="45.3261" y2="-2" transform="matrix(-0.0531797 0.998585 -0.998563 -0.0535918 147.057 43.9265)" stroke="black" stroke-width="4"/>
<path d="M145.517 88.5852L147.523 108.943L129.363 120.566" stroke="black" stroke-width="4"/>
<path d="M158.927 125.644L154.766 107.338L145.413 88.6262" stroke="black" stroke-width="4"/>
<path d="M25.7598 87.0807L33.9683 67.972L47.7397 53.253" stroke="black" stroke-width="4"/>
<path d="M46.7271 53.253L56.3883 70.6414L72.4319 86.7539" stroke="black" stroke-width="4"/>
<path d="M67.8471 25.5509C67.2702 36.3844 57.9246 44.7244 46.9332 44.1345C35.9418 43.5446 27.5353 34.2519 28.1122 23.4184C28.6892 12.5849 38.0347 4.24487 49.0261 4.83477C60.0175 5.42467 68.424 14.7174 67.8471 25.5509Z" fill="white" stroke="black" stroke-width="4"/>
<path d="M47.4193 45.6352L44.9322 91.5286" stroke="black" stroke-width="4"/>
<path d="M44.9322 91.5286L37.4435 109.002L23.2982 123.98" stroke="black" stroke-width="4"/>
<path d="M64.223 126.064L57.1729 108.665L44.9322 91.7012" stroke="black" stroke-width="4"/>
<path d="M268.165 23.8868C267.588 34.7203 258.242 43.0603 247.251 42.4704C236.26 41.8805 227.853 32.5877 228.43 21.7542C229.007 10.9207 238.352 2.58072 249.344 3.17062C260.335 3.76051 268.742 13.0532 268.165 23.8868Z" fill="white" stroke="black" stroke-width="4"/>
<line y1="-2" x2="45.3261" y2="-2" transform="matrix(-0.0531797 0.998585 -0.998563 -0.0535918 246.906 43.9265)" stroke="black" stroke-width="4"/>
<path d="M245.366 88.5852L247.127 108.17L228.821 118.987" stroke="black" stroke-width="4"/>
<path d="M257.944 124.812L252.952 107.338L245.263 88.6262" stroke="black" stroke-width="4"/>
<path d="M368.014 23.8868C367.437 34.7203 358.092 43.0603 347.1 42.4704C336.109 41.8805 327.702 32.5877 328.279 21.7542C328.856 10.9207 338.202 2.58072 349.193 3.17062C360.185 3.76051 368.591 13.0532 368.014 23.8868Z" fill="white" stroke="black" stroke-width="4"/>
<line y1="-2" x2="45.3261" y2="-2" transform="matrix(-0.0531797 0.998585 -0.998563 -0.0535918 346.755 43.9265)" stroke="black" stroke-width="4"/>
<path d="M345.216 88.5852L348.6 110.005L329.457 119.255" stroke="black" stroke-width="4"/>
<path d="M357.794 124.812L351.969 107.338L345.112 88.6262" stroke="black" stroke-width="4"/>
<path d="M467.864 23.8868C467.287 34.7203 457.941 43.0603 446.95 42.4704C435.958 41.8805 427.552 32.5877 428.129 21.7542C428.706 10.9207 438.051 2.58072 449.043 3.17062C460.034 3.76051 468.44 13.0532 467.864 23.8868Z" fill="white" stroke="black" stroke-width="4"/>
<line y1="-2" x2="45.3261" y2="-2" transform="matrix(-0.0531797 0.998585 -0.998563 -0.0535918 446.605 43.9265)" stroke="black" stroke-width="4"/>
<path d="M445.119 88.5758L450.742 109.52L432.681 120.735" stroke="black" stroke-width="4"/>
<path d="M441.403 126.3L443.468 107.991L445.091 88.1152" stroke="black" stroke-width="4"/>
<path d="M567.713 23.8868C567.136 34.7203 557.79 43.0603 546.799 42.4704C535.808 41.8805 527.401 32.5877 527.978 21.7542C528.555 10.9207 537.901 2.58072 548.892 3.17062C559.883 3.76051 568.29 13.0532 567.713 23.8868Z" fill="white" stroke="black" stroke-width="4"/>
<line y1="-2" x2="45.3261" y2="-2" transform="matrix(-0.0531797 0.998585 -0.998563 -0.0535918 546.454 43.9265)" stroke="black" stroke-width="4"/>
<path d="M544.814 88.5283L554.164 106.506L544.143 124.346" stroke="black" stroke-width="4"/>
<path d="M534.243 126.336L539.751 108.047L545.074 88.0659" stroke="black" stroke-width="4"/>
<path d="M669.226 25.5509C668.649 36.3844 659.304 44.7244 648.313 44.1345C637.321 43.5446 628.915 34.2519 629.492 23.4184C630.068 12.5849 639.414 4.24487 650.405 4.83477C661.397 5.42467 669.803 14.7174 669.226 25.5509Z" fill="white" stroke="black" stroke-width="4"/>
<line y1="-2" x2="45.3261" y2="-2" transform="matrix(-0.0531797 0.998585 -0.998563 -0.0535918 647.968 45.5907)" stroke="black" stroke-width="4"/>
<path d="M646.328 90.1925L658.174 104.842L654.013 122.315" stroke="black" stroke-width="4"/>
<path d="M635.757 128L641.264 109.711L646.587 89.73" stroke="black" stroke-width="4"/>
</svg>
